<svg class="svg-icon svg-icon-love-outline" height="1em" width="1em" viewBox="0 0 12 12" aria-hidden="true"><g><path class="svg-path" fill="none" stroke-width="1.2" d="M5.99999999,10.7698301 C6.17719359,10.6441425 6.37093551,10.5030483 6.57749999,10.348125 C7.26589455,9.83182904 7.95415999,9.26974557 8.59456522,8.68270743 C9.5906536,7.76962638 10.3742063,6.88346557 10.8615041,6.07130254 C11.2181936,5.47682019 11.4,4.94655164 11.4,4.49999995 C11.4000002,2.76610616 10.1930258,1.6 8.75,1.6 C8.13390619,1.6 7.58061147,1.82896086 7.09367895,2.21851668 C6.79606739,2.45661192 6.59272013,2.69275771 6.49934053,2.83282447 L6.00011325,3.58165125 L5.50088597,2.83282447 C5.40750954,2.69276246 5.20415993,2.45662085 4.90653304,2.21852773 C4.41956466,1.82896675 3.86620386,1.6 3.25,1.6 C1.80711135,1.6 0.6,2.76618486 0.6,4.5 C0.6,4.94655168 0.781806354,5.47682021 1.13849576,6.07130255 C1.62579359,6.8834656 2.40934633,7.76962644 3.40543478,8.68270752 C4.04584,9.26974564 4.73410545,9.83182908 5.4225,10.348125 C5.62906448,10.5030484 5.82280639,10.6441426 5.99999999,10.7698301 Z"></path></g></svg>