<svg class="svg-icon svg-icon-playlist" height="34" width="16" viewBox="0 0 12 12" aria-hidden="true">
    <g>
        <path d="M8,9.99224439 C8,11.1010972 6.88071187,12 5.5,12 C4.11928813,12 3,11.1010972 3,9.99224439 C3,8.88339158 4.11928813,7.98448877 5.5,7.98448877 C6.06280296,7.98448877 6.58216973,8.13384364 7,8.38589285 L7,2.36277306 L7,0.75552108 C7,0.201673187 7.42629719,-0.118924155 7.95813424,0.0412456698 L12,1.25850747 L12,3.26731057 C12,3.82115846 11.5737028,4.1417558 11.0418658,3.98158598 L8,3 L8,9.99224439 Z M0,0 L6,0 L6,1 L0,1 L0,0 L0,0 Z M0,2 L6,2 L6,3 L0,3 L0,2 L0,2 Z M0,4 L6,4 L6,5 L0,5 L0,4 L0,4 Z"></path>
    </g>
</svg>