<svg class="svg-icon svg-icon-album" height="34" width="16" viewBox="0 0 12 12" aria-hidden="true">
    <g>
        <path d="M6,12 C2.68630007,12 0,9.31370447 0,6.00000293 C0,2.68627795 2.68630007,0 6,0 C9.31369993,0 12,2.68627795 12,6.00000293 C11.9999941,9.31370447 9.31369993,12 6,12 L6,12 L6,12 Z M6,2.99999854 C4.34315297,2.99999854 3.00000293,4.34313751 3.00000293,5.99999707 C3.00000293,7.65684491 4.34315297,8.99999561 6,8.99999561 C7.65684703,8.99999561 8.99999707,7.65684491 8.99999707,5.99999707 C8.99999707,4.34314337 7.65684703,2.99999854 6,2.99999854 L6,2.99999854 L6,2.99999854 Z M4,6 C4,4.89544508 4.89545094,4 6,4 C7.10454906,4 8,4.89544508 8,6 C8,7.10454906 7.10454906,8 6,8 C4.89545094,8 4,7.10454906 4,6 L4,6 Z M5,6 C5,6.55229635 5.44770365,7 6,7 C6.55229635,7 7,6.55229635 7,6 C6.99998828,5.44769193 6.55229635,5 6,5 C5.44770365,5 5,5.44769193 5,6 L5,6 Z"></path>
    </g>
</svg>