<svg x="0px" y="0px" viewBox="0 0 612 612">
	<g>
		<path d="M563.657,354.343h-32.18c0-142.385-100.955-257.827-225.47-257.827c-124.53,0-225.485,115.426-225.485,257.827h-32.18    C21.641,354.343,0,375.983,0,402.685v64.457c0,26.701,21.641,48.343,48.342,48.343h64.393V354.343    c0-124.595,86.533-225.599,193.273-225.599s193.258,101.003,193.258,225.599v161.142h64.392c26.701,0,48.343-21.642,48.343-48.343    v-64.457C612,375.983,590.358,354.343,563.657,354.343z M80.506,483.256H48.342c-8.879,0-16.114-7.235-16.114-16.114v-64.457    c0-8.879,7.235-16.113,16.114-16.113h32.164V483.256z M579.771,467.142c0,8.879-7.235,16.114-16.114,16.114h-32.163v-96.685    h32.163c8.879,0,16.114,7.234,16.114,16.113V467.142z" fill="#c2c2ca"/>
		<path d="M153.004,354.343H136.89c-4.447,0-8.041,3.609-8.041,8.057v145.027c0,4.448,3.593,8.058,8.041,8.058h16.114    c4.448,0,8.041-3.609,8.041-8.041V362.399C161.061,357.952,157.452,354.343,153.004,354.343z" fill="#c2c2ca"/>
		<path d="M475.11,354.343h-16.114c-4.447,0-8.041,3.609-8.041,8.057v145.027c0,4.448,3.609,8.041,8.041,8.041h16.114    c4.447,0,8.041-3.609,8.041-8.041V362.384C483.167,357.952,479.558,354.343,475.11,354.343z" fill="#c2c2ca"/>
	</g>
</svg>